<svg width="94" height="98" viewBox="0 0 94 98" fill="none" xmlns="http://www.w3.org/2000/svg">
<path d="M60.4805 16.7531C60.4805 16.7531 60.1641 16.2891 58.8398 16.4766C57.3809 16.6781 54.2578 18.5766 53.2617 23.2453C52.2656 27.9141 51.293 42.3563 51.9668 43.3031C53.2148 45.0563 55.7813 46.4578 55.8398 47.4516C55.8809 48.1922 55.5996 65.3906 55.3945 66.6141C55.1895 67.8375 54.0938 71.1844 53.9531 72.0328C53.8125 72.8719 54.4336 73.5188 55.084 73.5703C56.1504 73.65 59.3496 73.6734 59.3496 73.6734L60.4805 16.7531ZM40.9043 37.5797C40.9043 37.5797 40.166 23.175 40.1133 22.6219C40.084 22.2844 39.8731 21.7969 39.3457 21.8156C39.0059 21.825 38.8008 22.1203 38.8008 22.5375C38.8008 23.2547 38.4844 35.4 38.4902 36.0797C38.5078 37.0594 37.1133 36.8484 37.1426 36.1266C37.1719 35.4094 37.043 23.2969 36.9902 22.6734C36.9492 22.2047 36.8262 21.9 36.3398 21.9C35.8594 21.9 35.666 22.1906 35.584 22.6969C35.4023 23.775 35.2559 35.5172 35.2266 36.1641C35.1914 36.9703 33.8672 36.9609 33.8672 36.0984C33.8672 35.2359 33.9375 23.3672 33.9375 22.6453C33.9375 22.2656 33.6797 21.9188 33.2227 21.9281C32.8359 21.9375 32.5605 22.2844 32.5313 22.5984C32.4727 23.2688 31.9453 35.3672 31.9043 35.9672C31.8398 36.9141 30.3926 36.9375 30.3926 35.9063C30.3926 34.875 30.9082 23.3859 30.9375 22.6688C30.9551 22.2188 30.6445 21.8953 30.3926 21.8953C29.8066 21.8953 29.6602 22.3875 29.5898 22.7391C29.4375 23.5078 28.3594 30.2813 28.1016 32.8031C27.8438 35.325 27.3633 39.8906 28.3066 41.4422C29.4551 43.3219 31.7695 43.7531 31.7695 43.7531C31.7695 43.7531 31.3828 64.6688 31.1484 66.0375C30.8145 68.0063 29.2383 71.4094 29.3906 72.1922C29.543 72.975 30.0996 73.4344 31.1309 73.4766C32.1621 73.5188 34.2363 73.7344 34.8223 73.6078C35.0742 73.5516 35.1797 60.6609 35.1797 60.6609L35.4375 40.3969L40.9043 37.5797Z" fill="#9C9C9C"/>
<path d="M29.5781 38.7938L40.8574 39.8766C40.8574 39.8766 40.6289 41.6813 39.6973 42.6281C38.5313 43.8141 37.0547 43.9078 37.0547 43.9078C37.0547 43.9078 37.2246 65.3859 37.4707 66.8906C37.7168 68.3906 39.3106 72.075 38.8008 72.8578C38.3496 73.5563 37.2481 73.725 34.8633 73.6641C32.3555 73.5984 31.6406 73.6453 31.541 72.2859C31.4414 70.9266 32.9707 68.4281 33.041 66.6985C33.1113 64.9688 33.3867 42.9422 33.3867 42.9422C33.3867 42.9422 30.6563 42.6844 29.6484 40.8188C28.8633 39.361 29.5781 38.7938 29.5781 38.7938ZM58.7637 45.1594L55.1719 44.5359C55.1719 44.5359 57.5859 46.1578 57.6328 47.4094C57.6797 48.661 57.7734 66.3469 57.5332 67.4063C57.293 68.4656 55.4004 72.5297 56.2676 73.2656C56.8594 73.7625 58.8106 73.6594 59.9004 73.6594C60.9902 73.6594 61.8926 73.6219 62.3613 73.0922C62.8359 72.5625 62.6191 71.1422 62.3672 70.0781C62.0801 68.8406 61.7461 67.7297 61.7461 67.1813C61.7461 66.1969 60.9434 43.2656 60.9434 43.2656L58.7637 45.1594Z" fill="#C8C8C8"/>
<path d="M60.1055 16.6359C59.1094 16.6594 56.7246 17.5031 55.4473 21.1922C54.4512 24.075 54.2227 27.5344 53.9766 33.675C53.6836 41.0625 54.0703 43.3781 54.3574 43.5656C54.6445 43.7531 59.0977 45.2344 59.0977 45.2344L60.9434 43.2656C60.9434 43.2656 60.6563 19.35 60.6563 18.3609C60.6563 17.3719 60.832 16.6172 60.1055 16.6359ZM29.2617 37.6359C29.2617 37.6359 29.2324 39.375 29.2617 39.5391C29.291 39.7031 33.8906 40.0125 35.6953 40.0359C37.5 40.0594 40.8691 39.8906 40.8691 39.8906C40.8691 39.8906 40.9277 39.3094 40.9277 38.6391C40.9277 38.0578 40.9043 37.5703 40.9043 37.5703L29.2617 37.6359Z" fill="#E0E0E0"/>
<path d="M30.2988 41.1797C31.7578 41.4516 34.9336 40.3781 34.4648 39.9609C33.9609 39.5063 29.3203 39.1406 29.2617 39.4875C29.2031 39.8344 29.5254 41.0344 30.2988 41.1797ZM37.1953 72.1266C37.5703 71.5688 37.2832 69.8813 37.1074 68.9906C36.9316 68.1 36.7852 67.4109 36.3047 67.4672C35.9121 67.5141 35.9121 67.8656 35.9121 68.6016C35.9121 69.3375 35.9824 70.5328 35.6367 70.8C35.2852 71.0672 34.0137 71.6438 34.1426 72.1922C34.2715 72.7406 35.1797 72.7172 35.8418 72.6938C36.2637 72.6891 36.8906 72.5859 37.1953 72.1266ZM60.6973 69.075C60.2754 69.0516 60.2461 69.6469 60.2461 70.2797C60.2461 70.9125 60.0117 71.3813 59.6602 71.5688C59.3086 71.7563 58.3887 72.1547 58.4473 72.5156C58.5059 72.8766 58.957 72.9609 60.2637 72.9141C61.5645 72.8672 61.5352 72.1313 61.4941 71.3813C61.4414 70.6313 61.3125 69.1078 60.6973 69.075ZM54.3516 43.3688C54 43.4906 55.0723 44.55 56.291 45.3891C57.5508 46.2563 58.0781 46.5234 59.3613 46.4672C60.6504 46.4109 61.3066 43.6172 60.5039 43.3688C59.7012 43.125 59.4668 44.1469 58.4238 44.2875C57.3809 44.4281 54.9902 43.1438 54.3516 43.3688Z" fill="#FDFDFD"/>
<g filter="url(#filter0_d_100_14)">
<path d="M28.9945 79.2887L89 79.2887" stroke="white"/>
</g>
<g filter="url(#filter1_d_100_14)">
<path d="M84.4692 78.9622L84.4692 10.1887" stroke="white"/>
</g>
<g filter="url(#filter2_d_100_14)">
<path d="M84.4548 9.29343L8.68446 9.66075" stroke="white"/>
</g>
<g filter="url(#filter3_d_100_14)">
<path d="M4.78106 8.49057L4.78106 81.0849" stroke="white"/>
</g>
<g filter="url(#filter4_d_100_14)">
<path d="M4 80.6604H15.716" stroke="white"/>
</g>
<g filter="url(#filter5_d_100_14)">
<path d="M78.2011 90L78.201 2.5" stroke="white" stroke-width="0.5"/>
</g>
<g filter="url(#filter6_d_100_14)">
<path d="M78.9821 89.1509L18.8402 89.1509" stroke="white"/>
</g>
<g filter="url(#filter7_d_100_14)">
<path d="M14.9349 90L14.9349 1.69811" stroke="white" stroke-width="0.5"/>
</g>
<g filter="url(#filter8_d_100_14)">
<path d="M9 0.999993L73 0.999993" stroke="white"/>
</g>
<defs>
<filter id="filter0_d_100_14" x="24.9931" y="78.7886" width="68.0083" height="9.00006" filterUnits="userSpaceOnUse" color-interpolation-filters="sRGB">
<feFlood flood-opacity="0" result="BackgroundImageFix"/>
<feColorMatrix in="SourceAlpha" type="matrix" values="0 0 0 0 0 0 0 0 0 0 0 0 0 0 0 0 0 0 127 0" result="hardAlpha"/>
<feOffset dy="4"/>
<feGaussianBlur stdDeviation="2"/>
<feComposite in2="hardAlpha" operator="out"/>
<feColorMatrix type="matrix" values="0 0 0 0 0 0 0 0 0 0 0 0 0 0 0 0 0 0 0.25 0"/>
<feBlend mode="normal" in2="BackgroundImageFix" result="effect1_dropShadow_100_14"/>
<feBlend mode="normal" in="SourceGraphic" in2="effect1_dropShadow_100_14" result="shape"/>
</filter>
<filter id="filter1_d_100_14" x="79.9692" y="10.1876" width="8.99997" height="76.7757" filterUnits="userSpaceOnUse" color-interpolation-filters="sRGB">
<feFlood flood-opacity="0" result="BackgroundImageFix"/>
<feColorMatrix in="SourceAlpha" type="matrix" values="0 0 0 0 0 0 0 0 0 0 0 0 0 0 0 0 0 0 127 0" result="hardAlpha"/>
<feOffset dy="4"/>
<feGaussianBlur stdDeviation="2"/>
<feComposite in2="hardAlpha" operator="out"/>
<feColorMatrix type="matrix" values="0 0 0 0 0 0 0 0 0 0 0 0 0 0 0 0 0 0 0.25 0"/>
<feBlend mode="normal" in2="BackgroundImageFix" result="effect1_dropShadow_100_14"/>
<feBlend mode="normal" in="SourceGraphic" in2="effect1_dropShadow_100_14" result="shape"/>
</filter>
<filter id="filter2_d_100_14" x="4.6815" y="8.79343" width="83.7763" height="9.36731" filterUnits="userSpaceOnUse" color-interpolation-filters="sRGB">
<feFlood flood-opacity="0" result="BackgroundImageFix"/>
<feColorMatrix in="SourceAlpha" type="matrix" values="0 0 0 0 0 0 0 0 0 0 0 0 0 0 0 0 0 0 127 0" result="hardAlpha"/>
<feOffset dy="4"/>
<feGaussianBlur stdDeviation="2"/>
<feComposite in2="hardAlpha" operator="out"/>
<feColorMatrix type="matrix" values="0 0 0 0 0 0 0 0 0 0 0 0 0 0 0 0 0 0 0.25 0"/>
<feBlend mode="normal" in2="BackgroundImageFix" result="effect1_dropShadow_100_14"/>
<feBlend mode="normal" in="SourceGraphic" in2="effect1_dropShadow_100_14" result="shape"/>
</filter>
<filter id="filter3_d_100_14" x="0.281063" y="8.49057" width="9" height="80.5943" filterUnits="userSpaceOnUse" color-interpolation-filters="sRGB">
<feFlood flood-opacity="0" result="BackgroundImageFix"/>
<feColorMatrix in="SourceAlpha" type="matrix" values="0 0 0 0 0 0 0 0 0 0 0 0 0 0 0 0 0 0 127 0" result="hardAlpha"/>
<feOffset dy="4"/>
<feGaussianBlur stdDeviation="2"/>
<feComposite in2="hardAlpha" operator="out"/>
<feColorMatrix type="matrix" values="0 0 0 0 0 0 0 0 0 0 0 0 0 0 0 0 0 0 0.25 0"/>
<feBlend mode="normal" in2="BackgroundImageFix" result="effect1_dropShadow_100_14"/>
<feBlend mode="normal" in="SourceGraphic" in2="effect1_dropShadow_100_14" result="shape"/>
</filter>
<filter id="filter4_d_100_14" x="0" y="80.1604" width="19.716" height="9" filterUnits="userSpaceOnUse" color-interpolation-filters="sRGB">
<feFlood flood-opacity="0" result="BackgroundImageFix"/>
<feColorMatrix in="SourceAlpha" type="matrix" values="0 0 0 0 0 0 0 0 0 0 0 0 0 0 0 0 0 0 127 0" result="hardAlpha"/>
<feOffset dy="4"/>
<feGaussianBlur stdDeviation="2"/>
<feComposite in2="hardAlpha" operator="out"/>
<feColorMatrix type="matrix" values="0 0 0 0 0 0 0 0 0 0 0 0 0 0 0 0 0 0 0.25 0"/>
<feBlend mode="normal" in2="BackgroundImageFix" result="effect1_dropShadow_100_14"/>
<feBlend mode="normal" in="SourceGraphic" in2="effect1_dropShadow_100_14" result="shape"/>
</filter>
<filter id="filter5_d_100_14" x="73.951" y="2.5" width="8.50002" height="95.5" filterUnits="userSpaceOnUse" color-interpolation-filters="sRGB">
<feFlood flood-opacity="0" result="BackgroundImageFix"/>
<feColorMatrix in="SourceAlpha" type="matrix" values="0 0 0 0 0 0 0 0 0 0 0 0 0 0 0 0 0 0 127 0" result="hardAlpha"/>
<feOffset dy="4"/>
<feGaussianBlur stdDeviation="2"/>
<feComposite in2="hardAlpha" operator="out"/>
<feColorMatrix type="matrix" values="0 0 0 0 0 0 0 0 0 0 0 0 0 0 0 0 0 0 0.25 0"/>
<feBlend mode="normal" in2="BackgroundImageFix" result="effect1_dropShadow_100_14"/>
<feBlend mode="normal" in="SourceGraphic" in2="effect1_dropShadow_100_14" result="shape"/>
</filter>
<filter id="filter6_d_100_14" x="14.8402" y="88.6509" width="68.1419" height="9" filterUnits="userSpaceOnUse" color-interpolation-filters="sRGB">
<feFlood flood-opacity="0" result="BackgroundImageFix"/>
<feColorMatrix in="SourceAlpha" type="matrix" values="0 0 0 0 0 0 0 0 0 0 0 0 0 0 0 0 0 0 127 0" result="hardAlpha"/>
<feOffset dy="4"/>
<feGaussianBlur stdDeviation="2"/>
<feComposite in2="hardAlpha" operator="out"/>
<feColorMatrix type="matrix" values="0 0 0 0 0 0 0 0 0 0 0 0 0 0 0 0 0 0 0.25 0"/>
<feBlend mode="normal" in2="BackgroundImageFix" result="effect1_dropShadow_100_14"/>
<feBlend mode="normal" in="SourceGraphic" in2="effect1_dropShadow_100_14" result="shape"/>
</filter>
<filter id="filter7_d_100_14" x="10.6849" y="1.69809" width="8.50001" height="96.3019" filterUnits="userSpaceOnUse" color-interpolation-filters="sRGB">
<feFlood flood-opacity="0" result="BackgroundImageFix"/>
<feColorMatrix in="SourceAlpha" type="matrix" values="0 0 0 0 0 0 0 0 0 0 0 0 0 0 0 0 0 0 127 0" result="hardAlpha"/>
<feOffset dy="4"/>
<feGaussianBlur stdDeviation="2"/>
<feComposite in2="hardAlpha" operator="out"/>
<feColorMatrix type="matrix" values="0 0 0 0 0 0 0 0 0 0 0 0 0 0 0 0 0 0 0.25 0"/>
<feBlend mode="normal" in2="BackgroundImageFix" result="effect1_dropShadow_100_14"/>
<feBlend mode="normal" in="SourceGraphic" in2="effect1_dropShadow_100_14" result="shape"/>
</filter>
<filter id="filter8_d_100_14" x="5" y="0.5" width="72" height="9" filterUnits="userSpaceOnUse" color-interpolation-filters="sRGB">
<feFlood flood-opacity="0" result="BackgroundImageFix"/>
<feColorMatrix in="SourceAlpha" type="matrix" values="0 0 0 0 0 0 0 0 0 0 0 0 0 0 0 0 0 0 127 0" result="hardAlpha"/>
<feOffset dy="4"/>
<feGaussianBlur stdDeviation="2"/>
<feComposite in2="hardAlpha" operator="out"/>
<feColorMatrix type="matrix" values="0 0 0 0 0 0 0 0 0 0 0 0 0 0 0 0 0 0 0.25 0"/>
<feBlend mode="normal" in2="BackgroundImageFix" result="effect1_dropShadow_100_14"/>
<feBlend mode="normal" in="SourceGraphic" in2="effect1_dropShadow_100_14" result="shape"/>
</filter>
</defs>
</svg>
