<svg width="70" height="70" viewBox="0 0 70 70" fill="none" xmlns="http://www.w3.org/2000/svg">
<g clip-path="url(#clip0_79_548)">
<path d="M35 0C25.7195 0 16.8109 3.68977 10.2539 10.2512C3.69011 16.8152 0.00181819 25.7172 0 35C0 44.2788 3.69141 53.1874 10.2539 59.7488C16.8109 66.3102 25.7195 70 35 70C44.2805 70 53.1891 66.3102 59.7461 59.7488C66.3086 53.1874 70 44.2788 70 35C70 25.7212 66.3086 16.8126 59.7461 10.2512C53.1891 3.68977 44.2805 0 35 0Z" fill="url(#paint0_linear_79_548)"/>
<path d="M15.843 34.6301C26.0476 30.1851 32.8508 27.2544 36.2523 25.8386C45.9758 21.7955 47.9937 21.0933 49.3117 21.0695C49.6016 21.0649 50.2469 21.1365 50.668 21.477C51.018 21.7641 51.1164 22.1524 51.1656 22.425C51.2094 22.6973 51.2695 23.318 51.2203 23.8026C50.6953 29.3369 48.4148 42.7671 47.2555 48.9659C46.7687 51.5887 45.8008 52.4681 44.8656 52.554C42.8312 52.741 41.2891 51.2108 39.3203 49.9207C36.2414 47.9011 34.5023 46.6444 31.5109 44.674C28.0547 42.3968 30.2969 41.145 32.2656 39.0997C32.7797 38.5643 41.7375 30.4186 41.907 29.6798C41.9289 29.5874 41.9508 29.2429 41.743 29.0613C41.5406 28.8792 41.2398 28.9415 41.0211 28.9908C40.7094 29.0608 35.793 32.3136 26.2555 38.7486C24.8609 39.7079 23.5976 40.1754 22.4601 40.1508C21.2133 40.124 18.807 39.4443 17.0187 38.8635C14.8312 38.1509 13.0867 37.7741 13.2398 36.5639C13.3164 35.9339 14.1859 35.2891 15.843 34.6301Z" fill="white"/>
</g>
<defs>
<linearGradient id="paint0_linear_79_548" x1="3500" y1="0" x2="3500" y2="7000" gradientUnits="userSpaceOnUse">
<stop stop-color="#E94966"/>
<stop offset="1" stop-color="#229ED9"/>
</linearGradient>
<clipPath id="clip0_79_548">
<rect width="70" height="70" fill="white"/>
</clipPath>
</defs>
</svg>
