<svg width="35" height="30" viewBox="0 0 35 30" fill="none" xmlns="http://www.w3.org/2000/svg">
<path d="M35 9.68979C35 20.6299 18.7828 29.4851 18.0922 29.8508C17.9102 29.9487 17.7067 30 17.5 30C17.2933 30 17.0898 29.9487 16.9078 29.8508C16.2172 29.4851 0 20.6299 0 9.68979C0.0028949 7.12078 1.02447 4.65783 2.8406 2.84127C4.65673 1.02471 7.1191 0.00289558 9.6875 0C12.9141 0 15.7391 1.38783 17.5 3.73369C19.2609 1.38783 22.0859 0 25.3125 0C27.8809 0.00289558 30.3433 1.02471 32.1594 2.84127C33.9755 4.65783 34.9971 7.12078 35 9.68979Z" fill="#E43535"/>
</svg>
