<svg width="30" height="30" viewBox="0 0 30 30" fill="none" xmlns="http://www.w3.org/2000/svg">
<path d="M27.6837 22.8021L16.01 29.2813C15.4499 29.5922 14.5335 29.5922 13.9735 29.2813L2.29972 22.8021C2.0197 22.6467 1.87972 22.4418 1.87972 22.2369H1.75574V7.763H28.1038V22.2369C28.1038 22.4418 27.9638 22.6467 27.6837 22.8021Z" fill="#FF473E"/>
<path d="M28.1037 7.763V22.2369C28.1037 22.4418 27.9638 22.6467 27.6837 22.8021L16.0099 29.2813C15.7187 29.4429 15.3312 29.5199 14.9475 29.5133C14.9566 22.2655 15.1626 15.0086 14.9374 7.76294L28.1037 7.763Z" fill="#FF6E83"/>
<path d="M13.9735 14.8074L2.29979 8.32812C1.73975 8.01728 1.73975 7.50868 2.29979 7.19784L13.9735 0.718665C14.5336 0.407825 15.45 0.407825 16.01 0.718665L27.6838 7.1979C28.2438 7.50874 28.2438 8.01734 27.6838 8.32818L16.01 14.8074C15.45 15.1182 14.5336 15.1182 13.9735 14.8074Z" fill="#FFA9BA"/>
<path d="M22.9154 4.34323C22.9148 4.41172 22.8957 4.47878 22.8602 4.53736C22.8248 4.59594 22.7741 4.64387 22.7137 4.6761L8.72654 12.1319C8.70728 12.1421 8.68717 12.1507 8.66643 12.1575L8.61914 12.184V26.0982C8.61915 26.1645 8.60184 26.2297 8.56893 26.2873C8.53602 26.3448 8.48866 26.3928 8.43152 26.4264C8.37437 26.4601 8.30944 26.4782 8.24314 26.4791C8.17683 26.4799 8.11146 26.4634 8.05348 26.4313L5.70973 25.1304C5.65031 25.0974 5.60079 25.0492 5.56632 24.9906C5.53184 24.932 5.51367 24.8653 5.51367 24.7974V11.2572C5.51373 11.0249 5.56596 10.7955 5.66649 10.5861C5.76702 10.3766 5.91329 10.1924 6.09451 10.047L6.10834 10.0362C6.13904 10.0122 6.16816 9.99102 6.19811 9.97081C6.2426 9.9406 6.28859 9.91267 6.33592 9.88714L19.9144 2.64917C19.9705 2.61925 20.0332 2.60386 20.0968 2.60441C20.1604 2.60495 20.2228 2.6214 20.2784 2.65227L22.7194 4.00702C22.7792 4.04027 22.8291 4.08904 22.8635 4.14821C22.898 4.20738 22.9159 4.27475 22.9154 4.34323ZM24.2052 10.2337C24.1166 10.1327 24.0152 10.0436 23.9036 9.9687C23.8962 9.96372 23.8889 9.95874 23.8803 9.95311C23.844 9.92949 23.8068 9.90742 23.7687 9.88696L10.1902 2.64911C10.1341 2.61918 10.0714 2.60378 10.0078 2.60432C9.94424 2.60487 9.88181 2.62133 9.82623 2.65221L7.38527 4.00696C7.32536 4.04018 7.27552 4.08896 7.241 4.14814C7.20649 4.20732 7.18857 4.27471 7.18916 4.34322C7.18974 4.41173 7.20879 4.47881 7.24431 4.5374C7.27982 4.59598 7.33049 4.6439 7.39096 4.6761L21.3781 12.1319C21.3976 12.1422 21.4177 12.1508 21.4383 12.1576L21.4855 12.184V26.0983C21.4855 26.1646 21.5028 26.2297 21.5357 26.2873C21.5686 26.3449 21.616 26.3929 21.6731 26.4265C21.7303 26.4601 21.7952 26.4783 21.8615 26.4791C21.9278 26.48 21.9932 26.4635 22.0512 26.4313L24.3949 25.1305C24.4543 25.0975 24.5038 25.0492 24.5383 24.9907C24.5728 24.9321 24.591 24.8654 24.591 24.7974V11.2572C24.5908 10.8806 24.4537 10.5168 24.2052 10.2337Z" fill="#FFD4DE"/>
<path d="M19.6642 8.03224C19.6642 8.98796 18.4919 9.68159 16.8769 9.68159C16.2183 9.68159 15.6334 9.5661 15.1716 9.36466C15.1126 9.33906 15.0487 9.32678 14.9845 9.32869C14.9202 9.33061 14.8572 9.34667 14.7998 9.37573C14.3185 9.61866 13.6802 9.76023 12.9513 9.76023C11.3363 9.76023 10.1641 9.06659 10.1641 8.11087C10.1641 7.6297 10.4613 7.21503 10.9625 6.92177C11.1599 6.80628 11.2428 6.55978 11.145 6.353C10.7878 5.59749 10.7993 4.88868 11.2374 4.45052C11.4644 4.22358 11.7752 4.10364 12.1363 4.10364C12.39 4.10364 12.6655 4.16358 12.9486 4.27614C13.0573 4.31952 13.1788 4.31838 13.2867 4.27297C13.3946 4.22756 13.4803 4.14153 13.5254 4.03345C13.8163 3.33905 14.2976 2.91138 14.8748 2.91138C15.4421 2.91138 15.917 3.32452 16.2093 3.99812C16.3063 4.22171 16.5624 4.32841 16.7877 4.23542C17.0835 4.11337 17.3717 4.0481 17.6363 4.0481C18.0924 4.0481 18.3769 4.23671 18.5351 4.39497C18.9658 4.82569 18.9844 5.51786 18.6456 6.2589C18.5505 6.46679 18.6348 6.71276 18.8338 6.82521C19.3542 7.11923 19.6642 7.54104 19.6642 8.03224Z" fill="#FF6E83"/>
</svg>
