<svg width="32" height="32" viewBox="0 0 32 32" fill="none" xmlns="http://www.w3.org/2000/svg">
<g clip-path="url(#clip0_79_552)">
<g filter="url(#filter0_d_79_552)">
<path d="M2.55 6.64213C2.55 4.86213 3.434 3.23613 4.137 2.68213L12.871 11.2441C12.496 11.7441 11.676 12.2751 10.699 12.7281C10.16 13.0561 9.613 13.6891 10.027 14.7521C12.402 18.8531 16.418 21.6821 17.449 21.9001C18.192 22.0581 18.832 21.7601 19.262 20.6971C19.738 19.7441 20.293 19.0721 20.622 18.7751L29.449 27.5331C28.929 28.2211 27.512 29.4551 24.887 29.3061C19.684 29.1971 13.371 27.4161 8.293 21.9001C2.918 15.8381 2.551 8.89213 2.551 6.64213H2.55Z" fill="url(#paint0_linear_79_552)"/>
<path d="M2.55 6.64213C2.55 4.86213 3.434 3.23613 4.137 2.68213L12.871 11.2441C12.496 11.7441 11.676 12.2751 10.699 12.7281C10.16 13.0561 9.613 13.6891 10.027 14.7521C12.402 18.8531 16.418 21.6821 17.449 21.9001C18.192 22.0581 18.832 21.7601 19.262 20.6971C19.738 19.7441 20.293 19.0721 20.622 18.7751L29.449 27.5331C28.929 28.2211 27.512 29.4551 24.887 29.3061C19.684 29.1971 13.371 27.4161 8.293 21.9001C2.918 15.8381 2.551 8.89213 2.551 6.64213H2.55Z" fill="url(#paint1_radial_79_552)"/>
</g>
<g filter="url(#filter1_f_79_552)">
<path d="M4.477 3.18614C4.504 3.16214 4.531 3.14014 4.557 3.11914L12.543 10.9451C11.4537 11.6367 10.1637 11.9424 8.87986 11.8133C7.59603 11.6843 6.39272 11.1279 5.46282 10.2334C4.53291 9.33889 3.93028 8.15806 3.75153 6.8802C3.57277 5.60235 3.82825 4.30148 4.477 3.18614Z" fill="url(#paint2_radial_79_552)"/>
</g>
<g filter="url(#filter2_f_79_552)">
<path d="M20.809 19.713C20.942 19.552 21.064 19.425 21.163 19.334L29.2 27.39C29.1735 27.4256 29.1461 27.4606 29.118 27.495C28.0644 28.3357 26.7559 28.7927 25.408 28.791C22.101 28.791 19.419 26.088 19.419 22.755C19.419 21.501 20.161 20.677 20.809 19.713Z" fill="url(#paint3_radial_79_552)"/>
<path d="M20.809 19.713C20.942 19.552 21.064 19.425 21.163 19.334L29.2 27.39C29.1735 27.4256 29.1461 27.4606 29.118 27.495C28.0644 28.3357 26.7559 28.7927 25.408 28.791C22.101 28.791 19.419 26.088 19.419 22.755C19.419 21.501 20.161 20.677 20.809 19.713Z" fill="url(#paint4_radial_79_552)"/>
<path d="M20.809 19.713C20.942 19.552 21.064 19.425 21.163 19.334L29.2 27.39C29.1735 27.4256 29.1461 27.4606 29.118 27.495C28.0644 28.3357 26.7559 28.7927 25.408 28.791C22.101 28.791 19.419 26.088 19.419 22.755C19.419 21.501 20.161 20.677 20.809 19.713Z" fill="url(#paint5_radial_79_552)"/>
</g>
<g filter="url(#filter3_d_79_552)">
<path d="M4.532 2.01995C4.69451 1.85743 4.88743 1.72851 5.09976 1.64055C5.31209 1.5526 5.53967 1.50732 5.7695 1.50732C5.99933 1.50732 6.22691 1.5526 6.43924 1.64055C6.65157 1.72851 6.8445 1.85743 7.007 2.01995L13.47 8.48295C13.6325 8.64545 13.7614 8.83838 13.8494 9.05071C13.9374 9.26304 13.9826 9.49062 13.9826 9.72045C13.9826 9.95028 13.9374 10.1779 13.8494 10.3902C13.7614 10.6025 13.6325 10.7954 13.47 10.958L12.99 11.438C12.9529 11.4751 12.9087 11.5046 12.8602 11.5248C12.8116 11.5449 12.7596 11.5553 12.707 11.5553C12.6544 11.5553 12.6024 11.5449 12.5538 11.5248C12.5053 11.5046 12.4612 11.4751 12.424 11.438L4.052 3.06595C4.01481 3.0288 3.98531 2.98469 3.96518 2.93613C3.94505 2.88757 3.93469 2.83552 3.93469 2.78295C3.93469 2.73038 3.94505 2.67833 3.96518 2.62977C3.98531 2.58122 4.01481 2.5371 4.052 2.49995L4.532 2.01995Z" fill="url(#paint6_radial_79_552)"/>
<path d="M4.532 2.01995C4.69451 1.85743 4.88743 1.72851 5.09976 1.64055C5.31209 1.5526 5.53967 1.50732 5.7695 1.50732C5.99933 1.50732 6.22691 1.5526 6.43924 1.64055C6.65157 1.72851 6.8445 1.85743 7.007 2.01995L13.47 8.48295C13.6325 8.64545 13.7614 8.83838 13.8494 9.05071C13.9374 9.26304 13.9826 9.49062 13.9826 9.72045C13.9826 9.95028 13.9374 10.1779 13.8494 10.3902C13.7614 10.6025 13.6325 10.7954 13.47 10.958L12.99 11.438C12.9529 11.4751 12.9087 11.5046 12.8602 11.5248C12.8116 11.5449 12.7596 11.5553 12.707 11.5553C12.6544 11.5553 12.6024 11.5449 12.5538 11.5248C12.5053 11.5046 12.4612 11.4751 12.424 11.438L4.052 3.06595C4.01481 3.0288 3.98531 2.98469 3.96518 2.93613C3.94505 2.88757 3.93469 2.83552 3.93469 2.78295C3.93469 2.73038 3.94505 2.67833 3.96518 2.62977C3.98531 2.58122 4.01481 2.5371 4.052 2.49995L4.532 2.01995Z" fill="url(#paint7_radial_79_552)"/>
<path d="M4.532 2.01995C4.69451 1.85743 4.88743 1.72851 5.09976 1.64055C5.31209 1.5526 5.53967 1.50732 5.7695 1.50732C5.99933 1.50732 6.22691 1.5526 6.43924 1.64055C6.65157 1.72851 6.8445 1.85743 7.007 2.01995L13.47 8.48295C13.6325 8.64545 13.7614 8.83838 13.8494 9.05071C13.9374 9.26304 13.9826 9.49062 13.9826 9.72045C13.9826 9.95028 13.9374 10.1779 13.8494 10.3902C13.7614 10.6025 13.6325 10.7954 13.47 10.958L12.99 11.438C12.9529 11.4751 12.9087 11.5046 12.8602 11.5248C12.8116 11.5449 12.7596 11.5553 12.707 11.5553C12.6544 11.5553 12.6024 11.5449 12.5538 11.5248C12.5053 11.5046 12.4612 11.4751 12.424 11.438L4.052 3.06595C4.01481 3.0288 3.98531 2.98469 3.96518 2.93613C3.94505 2.88757 3.93469 2.83552 3.93469 2.78295C3.93469 2.73038 3.94505 2.67833 3.96518 2.62977C3.98531 2.58122 4.01481 2.5371 4.052 2.49995L4.532 2.01995Z" fill="url(#paint8_radial_79_552)"/>
</g>
<g filter="url(#filter4_d_79_552)">
<path d="M20.841 18.3688C21.525 17.6858 22.556 17.7208 23.316 18.3688C24.27 19.1808 29.238 24.1498 29.868 24.9198C30.498 25.6898 30.551 26.7118 29.868 27.3948L29.388 27.8748C29.3509 27.912 29.3067 27.9415 29.2582 27.9617C29.2096 27.9818 29.1576 27.9922 29.105 27.9922C29.0524 27.9922 29.0004 27.9818 28.9518 27.9617C28.9033 27.9415 28.8592 27.912 28.822 27.8748L20.362 19.4148C20.3248 19.3777 20.2953 19.3336 20.2752 19.285C20.255 19.2365 20.2447 19.1844 20.2447 19.1318C20.2447 19.0793 20.255 19.0272 20.2752 18.9787C20.2953 18.9301 20.3248 18.886 20.362 18.8488L20.841 18.3688Z" fill="url(#paint9_radial_79_552)"/>
<path d="M20.841 18.3688C21.525 17.6858 22.556 17.7208 23.316 18.3688C24.27 19.1808 29.238 24.1498 29.868 24.9198C30.498 25.6898 30.551 26.7118 29.868 27.3948L29.388 27.8748C29.3509 27.912 29.3067 27.9415 29.2582 27.9617C29.2096 27.9818 29.1576 27.9922 29.105 27.9922C29.0524 27.9922 29.0004 27.9818 28.9518 27.9617C28.9033 27.9415 28.8592 27.912 28.822 27.8748L20.362 19.4148C20.3248 19.3777 20.2953 19.3336 20.2752 19.285C20.255 19.2365 20.2447 19.1844 20.2447 19.1318C20.2447 19.0793 20.255 19.0272 20.2752 18.9787C20.2953 18.9301 20.3248 18.886 20.362 18.8488L20.841 18.3688Z" fill="url(#paint10_radial_79_552)"/>
</g>
<g filter="url(#filter5_f_79_552)">
<path d="M10.73 20.3301C7.542 17.3261 6.866 14.4761 6.48 13.1421H8.574C8.554 13.5591 9.312 16.2241 11.23 18.2361C15.262 22.4631 18.387 23.9731 19.762 24.4631C18.262 24.3381 15.449 24.7751 10.73 20.3301Z" fill="url(#paint11_linear_79_552)"/>
</g>
</g>
<defs>
<filter id="filter0_d_79_552" x="1.55" y="0.682129" width="30.899" height="30.6362" filterUnits="userSpaceOnUse" color-interpolation-filters="sRGB">
<feFlood flood-opacity="0" result="BackgroundImageFix"/>
<feColorMatrix in="SourceAlpha" type="matrix" values="0 0 0 0 0 0 0 0 0 0 0 0 0 0 0 0 0 0 127 0" result="hardAlpha"/>
<feOffset dx="1"/>
<feGaussianBlur stdDeviation="1"/>
<feComposite in2="hardAlpha" operator="out"/>
<feColorMatrix type="matrix" values="0 0 0 0 0.827451 0 0 0 0 0.317647 0 0 0 0 0.313726 0 0 0 1 0"/>
<feBlend mode="normal" in2="BackgroundImageFix" result="effect1_dropShadow_79_552"/>
<feBlend mode="normal" in="SourceGraphic" in2="effect1_dropShadow_79_552" result="shape"/>
</filter>
<filter id="filter1_f_79_552" x="2.69598" y="2.11914" width="10.847" height="10.7231" filterUnits="userSpaceOnUse" color-interpolation-filters="sRGB">
<feFlood flood-opacity="0" result="BackgroundImageFix"/>
<feBlend mode="normal" in="SourceGraphic" in2="BackgroundImageFix" result="shape"/>
<feGaussianBlur stdDeviation="0.5" result="effect1_foregroundBlur_79_552"/>
</filter>
<filter id="filter2_f_79_552" x="18.419" y="18.334" width="11.781" height="11.457" filterUnits="userSpaceOnUse" color-interpolation-filters="sRGB">
<feFlood flood-opacity="0" result="BackgroundImageFix"/>
<feBlend mode="normal" in="SourceGraphic" in2="BackgroundImageFix" result="shape"/>
<feGaussianBlur stdDeviation="0.5" result="effect1_foregroundBlur_79_552"/>
</filter>
<filter id="filter3_d_79_552" x="3.28469" y="0.557324" width="11.6479" height="11.6479" filterUnits="userSpaceOnUse" color-interpolation-filters="sRGB">
<feFlood flood-opacity="0" result="BackgroundImageFix"/>
<feColorMatrix in="SourceAlpha" type="matrix" values="0 0 0 0 0 0 0 0 0 0 0 0 0 0 0 0 0 0 127 0" result="hardAlpha"/>
<feOffset dx="0.15" dy="-0.15"/>
<feGaussianBlur stdDeviation="0.4"/>
<feComposite in2="hardAlpha" operator="out"/>
<feColorMatrix type="matrix" values="0 0 0 0 0.623529 0 0 0 0 0.321569 0 0 0 0 0.47451 0 0 0 1 0"/>
<feBlend mode="normal" in2="BackgroundImageFix" result="effect1_dropShadow_79_552"/>
<feBlend mode="normal" in="SourceGraphic" in2="effect1_dropShadow_79_552" result="shape"/>
</filter>
<filter id="filter4_d_79_552" x="19.5947" y="16.9196" width="11.7159" height="11.7226" filterUnits="userSpaceOnUse" color-interpolation-filters="sRGB">
<feFlood flood-opacity="0" result="BackgroundImageFix"/>
<feColorMatrix in="SourceAlpha" type="matrix" values="0 0 0 0 0 0 0 0 0 0 0 0 0 0 0 0 0 0 127 0" result="hardAlpha"/>
<feOffset dx="0.15" dy="-0.15"/>
<feGaussianBlur stdDeviation="0.4"/>
<feComposite in2="hardAlpha" operator="out"/>
<feColorMatrix type="matrix" values="0 0 0 0 0.623529 0 0 0 0 0.321569 0 0 0 0 0.47451 0 0 0 1 0"/>
<feBlend mode="normal" in2="BackgroundImageFix" result="effect1_dropShadow_79_552"/>
<feBlend mode="normal" in="SourceGraphic" in2="effect1_dropShadow_79_552" result="shape"/>
</filter>
<filter id="filter5_f_79_552" x="4.73" y="11.3921" width="16.782" height="14.8208" filterUnits="userSpaceOnUse" color-interpolation-filters="sRGB">
<feFlood flood-opacity="0" result="BackgroundImageFix"/>
<feBlend mode="normal" in="SourceGraphic" in2="BackgroundImageFix" result="shape"/>
<feGaussianBlur stdDeviation="0.875" result="effect1_foregroundBlur_79_552"/>
</filter>
<linearGradient id="paint0_linear_79_552" x1="-0.645" y1="6.43113" x2="22.855" y2="28.5561" gradientUnits="userSpaceOnUse">
<stop stop-color="#E12D3E"/>
<stop offset="1" stop-color="#E821A1"/>
</linearGradient>
<radialGradient id="paint1_radial_79_552" cx="0" cy="0" r="1" gradientUnits="userSpaceOnUse" gradientTransform="translate(21.98 9.68113) rotate(92.8535) scale(20.0874 36.3763)">
<stop offset="0.792" stop-color="#D43EB0" stop-opacity="0"/>
<stop offset="1" stop-color="#D43EB0"/>
</radialGradient>
<radialGradient id="paint2_radial_79_552" cx="0" cy="0" r="1" gradientUnits="userSpaceOnUse" gradientTransform="translate(10.362 8.72214) rotate(131.057) scale(3.4119 5.68442)">
<stop offset="0.2" stop-color="#F52958"/>
<stop offset="1" stop-color="#DB2148"/>
</radialGradient>
<radialGradient id="paint3_radial_79_552" cx="0" cy="0" r="1" gradientUnits="userSpaceOnUse" gradientTransform="translate(26.197 24.057) rotate(132.154) scale(4.6071 7.09579)">
<stop offset="0.293" stop-color="#FB29AB"/>
<stop offset="1" stop-color="#FB29AB" stop-opacity="0"/>
</radialGradient>
<radialGradient id="paint4_radial_79_552" cx="0" cy="0" r="1" gradientUnits="userSpaceOnUse" gradientTransform="translate(24.561 22.2) rotate(111.493) scale(6.36168 8.74951)">
<stop offset="0.581" stop-color="#D82BA8" stop-opacity="0"/>
<stop offset="0.945" stop-color="#D531AA"/>
</radialGradient>
<radialGradient id="paint5_radial_79_552" cx="0" cy="0" r="1" gradientUnits="userSpaceOnUse" gradientTransform="translate(20.785 19.4133) rotate(114.776) scale(4.25662 2.76717)">
<stop stop-color="#CE4B6E"/>
<stop offset="1" stop-color="#CE4B6E" stop-opacity="0"/>
</radialGradient>
<radialGradient id="paint6_radial_79_552" cx="0" cy="0" r="1" gradientUnits="userSpaceOnUse" gradientTransform="translate(10.19 4.98095) rotate(132.416) scale(3.86518 7.61725)">
<stop stop-color="#C8439B"/>
<stop offset="1" stop-color="#B73098"/>
</radialGradient>
<radialGradient id="paint7_radial_79_552" cx="0" cy="0" r="1" gradientUnits="userSpaceOnUse" gradientTransform="translate(10.6059 6.53269) rotate(137.661) scale(1.52198 6.58497)">
<stop offset="0.144" stop-color="#DD6CB6"/>
<stop offset="1" stop-color="#DB69B6" stop-opacity="0"/>
</radialGradient>
<radialGradient id="paint8_radial_79_552" cx="0" cy="0" r="1" gradientUnits="userSpaceOnUse" gradientTransform="translate(10.824 4.80595) rotate(-171.232) scale(6.97046 11.6995)">
<stop offset="0.578" stop-color="#A35479" stop-opacity="0"/>
<stop offset="0.962" stop-color="#A35479"/>
</radialGradient>
<radialGradient id="paint9_radial_79_552" cx="0" cy="0" r="1" gradientUnits="userSpaceOnUse" gradientTransform="translate(26.5432 21.3681) rotate(132.397) scale(3.8931 7.67182)">
<stop stop-color="#BD3995"/>
<stop offset="1" stop-color="#AC3BA4"/>
</radialGradient>
<radialGradient id="paint10_radial_79_552" cx="0" cy="0" r="1" gradientUnits="userSpaceOnUse" gradientTransform="translate(26.4181 22.9296) rotate(137.226) scale(1.51947 5.12615)">
<stop stop-color="#DB69B6"/>
<stop offset="1" stop-color="#DB69B6" stop-opacity="0"/>
</radialGradient>
<linearGradient id="paint11_linear_79_552" x1="7.543" y1="13.0491" x2="15.168" y2="22.2051" gradientUnits="userSpaceOnUse">
<stop stop-color="#FF6670"/>
<stop offset="1" stop-color="#FF5693"/>
</linearGradient>
<clipPath id="clip0_79_552">
<rect width="32" height="32" fill="white"/>
</clipPath>
</defs>
</svg>
