<svg width="70" height="70" viewBox="0 0 70 70" fill="none" xmlns="http://www.w3.org/2000/svg">
<g clip-path="url(#clip0_79_539)">
<path d="M27.6763 0.0116797L29.8025 0.00292969H40.1975L42.3267 0.0116797L44.9925 0.0408464L46.2554 0.061263L47.4746 0.0933464L48.65 0.13418L49.7817 0.180846L50.8725 0.242096L51.9225 0.315013L52.9287 0.402513L53.9 0.498763C58.975 1.07043 62.4546 2.29543 65.0796 4.92043C67.7046 7.54543 68.9296 11.0221 69.5013 16.1L69.6004 17.0713L69.685 18.0804L69.7579 19.1304L69.8163 20.2183L69.8892 21.9333L69.9242 23.1292L69.9621 25.0075L69.9883 27.6763L70 30.5346L69.9971 40.1975L69.9883 42.3267L69.9592 44.9925L69.9388 46.2554L69.9067 47.4746L69.8658 48.65L69.8192 49.7817L69.7579 50.8725L69.685 51.9225L69.5975 52.9288L69.5013 53.9C68.9296 58.975 67.7046 62.4546 65.0796 65.0796C62.4546 67.7046 58.9779 68.9296 53.9 69.5013L52.9287 69.6004L51.9196 69.685L50.8696 69.7579L49.7817 69.8163L48.0667 69.8892L46.8708 69.9242L44.9925 69.9621L42.3237 69.9883L39.4654 70L29.8025 69.9971L27.6733 69.9883L25.0075 69.9592L23.7446 69.9388L22.5254 69.9067L21.35 69.8659L20.2183 69.8192L19.1275 69.7579L18.0775 69.685L17.0713 69.5975L16.1 69.5013C11.025 68.9296 7.54542 67.7046 4.92042 65.0796C2.29542 62.4546 1.07042 58.9779 0.49875 53.9L0.399583 52.9288L0.315 51.9196L0.242083 50.8696L0.18375 49.7817L0.110833 48.0667L0.0758333 46.8708L0.0379167 44.9925L0.0116667 42.3238L0 39.4654L0.00291667 29.8025L0.0116667 27.6733L0.0408333 25.0075L0.06125 23.7446L0.0933333 22.5254L0.134167 21.35L0.180833 20.2183L0.242083 19.1275L0.315 18.0775L0.4025 17.0713L0.49875 16.1C1.07042 11.025 2.29542 7.54543 4.92042 4.92043C7.54542 2.29543 11.0221 1.07043 16.1 0.498763L17.0713 0.399596L18.0804 0.315013L19.1304 0.242096L20.2183 0.183763L21.9333 0.110846L23.1292 0.0758464L25.0075 0.0379297L27.6763 0.0116797ZM19.8042 21.2917H11.8125C12.1917 39.4917 21.2917 50.4292 37.2458 50.4292H38.15V40.0167C44.0125 40.6 48.4458 44.8875 50.225 50.4292H58.5083C56.2333 42.1459 50.2542 37.5667 46.5208 35.8167C50.2542 33.6583 55.5042 28.4083 56.7583 21.2917H49.2333C47.6 27.0667 42.7583 32.3167 38.15 32.8125V21.2917H30.625V41.475C25.9583 40.3083 20.0667 34.65 19.8042 21.2917Z" fill="#699BF7"/>
</g>
<defs>
<clipPath id="clip0_79_539">
<rect width="70" height="70" fill="white"/>
</clipPath>
</defs>
</svg>
